<?xml version="1.0" encoding="utf-8"?>
<!-- Generator: Adobe Illustrator 28.0.0, SVG Export Plug-In . SVG Version: 6.00 Build 0)  -->
<svg version="1.1" id="uuid-34e625e0-8801-40bf-b3ee-cc679a97f8ab"
	 xmlns="http://www.w3.org/2000/svg" xmlns:xlink="http://www.w3.org/1999/xlink" x="0px" y="0px" viewBox="0 0 62.2 106.2"
	 style="enable-background:new 0 0 62.2 106.2;" xml:space="preserve">
<style type="text/css">
	.st0{fill:#DAD777;}
	.st1{enable-background:new    ;}
	.st2{fill:#07183B;}
</style>
<g id="uuid-b0b7e892-cae8-4a64-9484-425c9adc5c89">
	<polygon class="st0" points="0,106.2 31.9,95.7 62.2,106.2 62.2,0 0,0 	"/>
</g>
<g id="uuid-8f5cf2f7-f20f-472b-a819-b3a7a1658f42">
	<g class="st1">
		<path class="st2" d="M10.2,62.6l2.1,5.9l2.1-5.9h2.2v8.1h-1.7v-2.2l0.2-3.8l-2.2,6.1h-1.2l-2.2-6.1l0.2,3.8v2.2H8v-8.1H10.2z"/>
		<path class="st2" d="M24.7,66.9c0,0.8-0.1,1.5-0.4,2.1c-0.3,0.6-0.7,1.1-1.2,1.4s-1.1,0.5-1.8,0.5c-0.7,0-1.3-0.2-1.8-0.5
			s-0.9-0.8-1.2-1.4c-0.3-0.6-0.4-1.3-0.4-2.1v-0.4c0-0.8,0.1-1.5,0.4-2.1s0.7-1.1,1.2-1.4s1.1-0.5,1.8-0.5c0.7,0,1.3,0.2,1.8,0.5
			s0.9,0.8,1.2,1.4s0.4,1.3,0.4,2.1V66.9z M23,66.5c0-0.9-0.2-1.5-0.5-1.9c-0.3-0.4-0.7-0.7-1.3-0.7c-0.6,0-1,0.2-1.3,0.7
			c-0.3,0.4-0.5,1.1-0.5,1.9v0.4c0,0.8,0.2,1.5,0.5,1.9s0.7,0.7,1.3,0.7c0.6,0,1-0.2,1.3-0.7c0.3-0.4,0.5-1.1,0.5-1.9V66.5z"/>
	</g>
	<g class="st1">
		<path class="st2" d="M32.5,70.8h-1.7l-3.3-5.4v5.4h-1.7v-8.1h1.7l3.3,5.4v-5.4h1.7V70.8z"/>
	</g>
	<g class="st1">
		<path class="st2" d="M40,64h-2.5v6.8h-1.7V64h-2.5v-1.4H40V64z"/>
		<path class="st2" d="M47.5,70.8h-1.7v-3.5h-3.3v3.5h-1.7v-8.1h1.7v3.3h3.3v-3.3h1.7V70.8z"/>
		<path class="st2" d="M53.2,68.6c0-0.3-0.1-0.6-0.3-0.7c-0.2-0.2-0.6-0.3-1.2-0.5c-0.6-0.2-1-0.4-1.4-0.6c-0.9-0.5-1.4-1.2-1.4-2
			c0-0.4,0.1-0.8,0.4-1.2c0.2-0.3,0.6-0.6,1.1-0.8s1-0.3,1.6-0.3c0.6,0,1.1,0.1,1.6,0.3s0.8,0.5,1.1,0.9s0.4,0.8,0.4,1.3h-1.7
			c0-0.4-0.1-0.7-0.4-0.9s-0.6-0.3-1-0.3c-0.4,0-0.7,0.1-1,0.3s-0.3,0.4-0.3,0.7c0,0.3,0.1,0.5,0.4,0.7s0.7,0.3,1.2,0.5
			c1,0.3,1.7,0.6,2.1,1.1s0.7,1,0.7,1.6c0,0.7-0.3,1.3-0.8,1.7c-0.5,0.4-1.3,0.6-2.2,0.6c-0.6,0-1.2-0.1-1.7-0.3
			c-0.5-0.2-0.9-0.5-1.2-0.9s-0.4-0.9-0.4-1.4h1.7c0,0.9,0.5,1.3,1.6,1.3c0.4,0,0.7-0.1,0.9-0.2C53.1,69.2,53.2,68.9,53.2,68.6z"/>
	</g>
	<g class="st1">
		<path class="st2" d="M23.7,78.9h-3.2v3.3h-1.7v-8.1h5.3v1.4h-3.6v2.1h3.2V78.9z"/>
		<path class="st2" d="M28.1,79.3h-1.3v3H25v-8.1h3c1,0,1.7,0.2,2.2,0.6c0.5,0.4,0.8,1,0.8,1.8c0,0.6-0.1,1-0.4,1.4
			s-0.6,0.7-1.1,0.9l1.8,3.3v0.1h-1.8L28.1,79.3z M26.7,77.9h1.4c0.4,0,0.7-0.1,1-0.3c0.2-0.2,0.3-0.5,0.3-0.9
			c0-0.4-0.1-0.7-0.3-0.9c-0.2-0.2-0.6-0.3-1-0.3h-1.3V77.9z"/>
		<path class="st2" d="M37.3,78.7H34v2.2h3.8v1.3h-5.5v-8.1h5.5v1.4H34v1.9h3.2V78.7z"/>
		<path class="st2" d="M43.7,78.7h-3.2v2.2h3.8v1.3h-5.5v-8.1h5.5v1.4h-3.8v1.9h3.2V78.7z"/>
	</g>
	<g class="st1">
		<path class="st2" d="M44.7,53.4H18.4v-5.2L30.8,35c1.7-1.9,3-3.5,3.8-4.9c0.8-1.4,1.2-2.7,1.2-3.9c0-1.7-0.4-3-1.3-4
			c-0.9-1-2.1-1.5-3.7-1.5c-1.7,0-3.1,0.6-4.1,1.8c-1,1.2-1.5,2.7-1.5,4.7h-7.6c0-2.3,0.6-4.5,1.7-6.4c1.1-1.9,2.7-3.4,4.7-4.5
			s4.3-1.6,6.9-1.6c3.9,0,7,0.9,9.2,2.8s3.3,4.6,3.3,8c0,1.9-0.5,3.8-1.5,5.8c-1,2-2.7,4.2-5,6.9l-8.7,9.2h16.4V53.4z"/>
	</g>
</g>
</svg>
