<?xml version="1.0" encoding="utf-8"?>
<!-- Generator: Adobe Illustrator 28.0.0, SVG Export Plug-In . SVG Version: 6.00 Build 0)  -->
<svg version="1.1" id="uuid-34e625e0-8801-40bf-b3ee-cc679a97f8ab"
	 xmlns="http://www.w3.org/2000/svg" xmlns:xlink="http://www.w3.org/1999/xlink" x="0px" y="0px" viewBox="0 0 62.2 106.2"
	 style="enable-background:new 0 0 62.2 106.2;" xml:space="preserve">
<style type="text/css">
	.st0{fill:#DAD777;}
	.st1{enable-background:new    ;}
	.st2{fill:#07183B;}
</style>
<g id="uuid-b0b7e892-cae8-4a64-9484-425c9adc5c89">
	<polygon class="st0" points="0,106.2 31.9,95.7 62.2,106.2 62.2,0 0,0 	"/>
</g>
<g id="uuid-8f5cf2f7-f20f-472b-a819-b3a7a1658f42">
	<g class="st1">
		<path class="st2" d="M16.2,62.6l2.1,5.9l2.1-5.9h2.2v8.1h-1.7v-2.2l0.2-3.8l-2.2,6.1h-1.2l-2.2-6.1l0.2,3.8v2.2H14v-8.1H16.2z"/>
		<path class="st2" d="M29,67.2h-3.2v2.2h3.8v1.3h-5.5v-8.1h5.5V64h-3.8v1.9H29V67.2z"/>
		<path class="st2" d="M34.7,68.6c0-0.3-0.1-0.6-0.3-0.7c-0.2-0.2-0.6-0.3-1.2-0.5c-0.6-0.2-1-0.4-1.4-0.6c-0.9-0.5-1.4-1.2-1.4-2
			c0-0.4,0.1-0.8,0.4-1.2c0.2-0.3,0.6-0.6,1.1-0.8c0.5-0.2,1-0.3,1.6-0.3c0.6,0,1.1,0.1,1.6,0.3s0.8,0.5,1.1,0.9s0.4,0.8,0.4,1.3
			h-1.7c0-0.4-0.1-0.7-0.4-0.9c-0.2-0.2-0.6-0.3-1-0.3c-0.4,0-0.7,0.1-1,0.3c-0.2,0.2-0.3,0.4-0.3,0.7c0,0.3,0.1,0.5,0.4,0.7
			s0.7,0.3,1.2,0.5c1,0.3,1.7,0.6,2.1,1.1s0.7,1,0.7,1.6c0,0.7-0.3,1.3-0.8,1.7s-1.3,0.6-2.2,0.6c-0.6,0-1.2-0.1-1.7-0.3
			c-0.5-0.2-0.9-0.5-1.2-0.9c-0.3-0.4-0.4-0.9-0.4-1.4h1.7c0,0.9,0.5,1.3,1.6,1.3c0.4,0,0.7-0.1,0.9-0.2
			C34.6,69.2,34.7,68.9,34.7,68.6z"/>
		<path class="st2" d="M42.4,67.2h-3.2v2.2H43v1.3h-5.5v-8.1H43V64h-3.8v1.9h3.2V67.2z"/>
		<path class="st2" d="M48.2,68.6c0-0.3-0.1-0.6-0.3-0.7c-0.2-0.2-0.6-0.3-1.2-0.5c-0.6-0.2-1-0.4-1.4-0.6c-0.9-0.5-1.4-1.2-1.4-2
			c0-0.4,0.1-0.8,0.4-1.2s0.6-0.6,1.1-0.8c0.5-0.2,1-0.3,1.6-0.3c0.6,0,1.1,0.1,1.6,0.3s0.8,0.5,1.1,0.9s0.4,0.8,0.4,1.3h-1.7
			c0-0.4-0.1-0.7-0.4-0.9c-0.2-0.2-0.6-0.3-1-0.3c-0.4,0-0.7,0.1-1,0.3c-0.2,0.2-0.3,0.4-0.3,0.7c0,0.3,0.1,0.5,0.4,0.7
			s0.7,0.3,1.2,0.5c1,0.3,1.7,0.6,2.1,1.1s0.7,1,0.7,1.6c0,0.7-0.3,1.3-0.8,1.7s-1.3,0.6-2.2,0.6c-0.6,0-1.2-0.1-1.7-0.3
			c-0.5-0.2-0.9-0.5-1.2-0.9c-0.3-0.4-0.4-0.9-0.4-1.4h1.7c0,0.9,0.5,1.3,1.6,1.3c0.4,0,0.7-0.1,0.9-0.2
			C48.1,69.2,48.2,68.9,48.2,68.6z"/>
	</g>
	<g class="st1">
		<path class="st2" d="M19.2,81.2c-0.3,0.4-0.7,0.6-1.3,0.8c-0.6,0.2-1.2,0.3-1.8,0.3c-0.7,0-1.3-0.2-1.9-0.5
			c-0.5-0.3-0.9-0.8-1.2-1.3c-0.3-0.6-0.4-1.3-0.4-2.1v-0.6c0-0.8,0.1-1.5,0.4-2.1c0.3-0.6,0.7-1,1.2-1.4s1.1-0.5,1.8-0.5
			c1,0,1.7,0.2,2.3,0.7c0.5,0.5,0.9,1.1,1,2h-1.6c-0.1-0.5-0.2-0.8-0.5-1c-0.3-0.2-0.6-0.3-1.1-0.3c-0.6,0-1,0.2-1.3,0.6
			c-0.3,0.4-0.4,1.1-0.5,1.9v0.5c0,0.9,0.2,1.5,0.5,1.9c0.3,0.4,0.8,0.7,1.4,0.7c0.6,0,1.1-0.1,1.3-0.4v-1.4h-1.5V78h3.2V81.2z"/>
		<path class="st2" d="M23.5,79.3h-1.3v3h-1.7v-8.1h3c1,0,1.7,0.2,2.2,0.6c0.5,0.4,0.8,1,0.8,1.8c0,0.6-0.1,1-0.4,1.4
			s-0.6,0.7-1.1,0.9l1.8,3.3v0.1h-1.8L23.5,79.3z M22.2,77.9h1.4c0.4,0,0.7-0.1,1-0.3c0.2-0.2,0.3-0.5,0.3-0.9
			c0-0.4-0.1-0.7-0.3-0.9c-0.2-0.2-0.6-0.3-1-0.3h-1.3V77.9z"/>
		<path class="st2" d="M32.4,80.6h-2.9l-0.6,1.7h-1.8l3-8.1h1.6l3,8.1H33L32.4,80.6z M29.9,79.2h2l-1-3L29.9,79.2z"/>
		<path class="st2" d="M41,75.5h-2.5v6.8h-1.7v-6.8h-2.5v-1.4H41V75.5z"/>
		<path class="st2" d="M43.7,82.2h-1.7v-8.1h1.7V82.2z"/>
		<path class="st2" d="M49.5,80.1c0-0.3-0.1-0.6-0.3-0.7C49,79.2,48.6,79,48,78.8s-1-0.4-1.4-0.6c-0.9-0.5-1.4-1.2-1.4-2
			c0-0.4,0.1-0.8,0.4-1.2c0.2-0.3,0.6-0.6,1.1-0.8c0.5-0.2,1-0.3,1.6-0.3c0.6,0,1.1,0.1,1.6,0.3s0.8,0.5,1.1,0.9
			c0.3,0.4,0.4,0.8,0.4,1.3h-1.7c0-0.4-0.1-0.7-0.4-0.9c-0.2-0.2-0.6-0.3-1-0.3c-0.4,0-0.7,0.1-1,0.3c-0.2,0.2-0.3,0.4-0.3,0.7
			c0,0.3,0.1,0.5,0.4,0.7c0.3,0.2,0.7,0.3,1.2,0.5c1,0.3,1.7,0.6,2.1,1.1c0.4,0.4,0.7,1,0.7,1.6c0,0.7-0.3,1.3-0.8,1.7
			c-0.5,0.4-1.3,0.6-2.2,0.6c-0.6,0-1.2-0.1-1.7-0.3s-0.9-0.5-1.2-0.9c-0.3-0.4-0.4-0.9-0.4-1.4h1.7c0,0.9,0.5,1.3,1.6,1.3
			c0.4,0,0.7-0.1,0.9-0.2C49.4,80.6,49.5,80.4,49.5,80.1z"/>
	</g>
	<g class="st1">
		<path class="st2" d="M44.7,53.4H18.4v-5.2L30.8,35c1.7-1.9,3-3.5,3.8-4.9c0.8-1.4,1.2-2.7,1.2-3.9c0-1.7-0.4-3-1.3-4
			c-0.9-1-2.1-1.5-3.7-1.5c-1.7,0-3.1,0.6-4.1,1.8c-1,1.2-1.5,2.7-1.5,4.7h-7.6c0-2.3,0.6-4.5,1.7-6.4c1.1-1.9,2.7-3.4,4.7-4.5
			s4.3-1.6,6.9-1.6c3.9,0,7,0.9,9.2,2.8s3.3,4.6,3.3,8c0,1.9-0.5,3.8-1.5,5.8c-1,2-2.7,4.2-5,6.9l-8.7,9.2h16.4V53.4z"/>
	</g>
</g>
</svg>
